<mxfile host="app.diagrams.net" modified="2021-01-28T07:08:37.949Z" agent="5.0 (Windows NT 10.0; Win64; x64) AppleWebKit/537.36 (KHTML, like Gecko) Chrome/88.0.4324.96 Safari/537.36" etag="rRuO_8Ek07qCLYJvgpwd" version="14.2.7" type="github" pages="2">
  <diagram id="E1zCnELRqQV-pLU6De3C" name="Page-1">
    <mxGraphModel dx="2249" dy="1931" grid="1" gridSize="10" guides="1" tooltips="1" connect="1" arrows="1" fold="1" page="1" pageScale="1" pageWidth="827" pageHeight="1169" math="0" shadow="0">
      <root>
        <mxCell id="0" />
        <mxCell id="1" parent="0" />
        <mxCell id="1fg1kgdo0Z-w_NWFr2Vj-1" value="" style="ellipse;whiteSpace=wrap;html=1;" parent="1" vertex="1">
          <mxGeometry x="-710" y="470" width="120" height="80" as="geometry" />
        </mxCell>
        <mxCell id="1fg1kgdo0Z-w_NWFr2Vj-2" style="edgeStyle=orthogonalEdgeStyle;rounded=0;orthogonalLoop=1;jettySize=auto;html=1;entryX=0.5;entryY=1;entryDx=0;entryDy=0;" parent="1" source="1fg1kgdo0Z-w_NWFr2Vj-3" target="1fg1kgdo0Z-w_NWFr2Vj-40" edge="1">
          <mxGeometry relative="1" as="geometry" />
        </mxCell>
        <mxCell id="1fg1kgdo0Z-w_NWFr2Vj-3" value="&lt;p style=&quot;margin: 4px 0px 0px ; text-align: center&quot;&gt;&lt;b&gt;&lt;u&gt;BOSolutionPackageInfo&lt;/u&gt;&lt;/b&gt;&lt;br&gt;&lt;/p&gt;&lt;hr&gt;&lt;p style=&quot;margin: 0px ; margin-left: 8px&quot;&gt;&lt;span&gt;ID，&lt;/span&gt;&lt;/p&gt;&lt;p style=&quot;margin: 0px ; margin-left: 8px&quot;&gt;&lt;span&gt;BOID,&lt;/span&gt;&lt;/p&gt;&lt;p style=&quot;margin: 0px ; margin-left: 8px&quot;&gt;BOProjectID,&lt;/p&gt;&lt;p style=&quot;margin: 0px ; margin-left: 8px&quot;&gt;BundleSolutionID,&lt;/p&gt;&lt;p style=&quot;margin: 0px ; margin-left: 8px&quot;&gt;BundleSolutionName,&lt;/p&gt;&lt;p style=&quot;margin: 0px ; margin-left: 8px&quot;&gt;SolutionPN,&lt;/p&gt;&lt;p style=&quot;margin: 0px ; margin-left: 8px&quot;&gt;ProductGroupCode,&lt;/p&gt;&lt;p style=&quot;margin: 0px ; margin-left: 8px&quot;&gt;ProductAmount，&lt;br&gt;&lt;/p&gt;&lt;p style=&quot;margin: 0px ; margin-left: 8px&quot;&gt;SolutionState，&lt;br&gt;&lt;/p&gt;&lt;p style=&quot;margin: 0px ; margin-left: 8px&quot;&gt;PriceApproveLevel&lt;br&gt;&lt;/p&gt;" style="verticalAlign=top;align=left;overflow=fill;fontSize=12;fontFamily=Helvetica;html=1;strokeColor=#FF6392;shadow=1;fillColor=#FFE45E;rounded=1;" parent="1" vertex="1">
          <mxGeometry x="591.0799999999999" y="250" width="160.0000000000001" height="180" as="geometry" />
        </mxCell>
        <mxCell id="1fg1kgdo0Z-w_NWFr2Vj-4" value="&lt;p style=&quot;margin: 0px ; margin-top: 4px ; text-align: center ; text-decoration: underline&quot;&gt;&lt;b&gt;BOBasicInfo&lt;/b&gt;&lt;/p&gt;&lt;p style=&quot;margin: 0px ; margin-left: 8px&quot;&gt;BOID&lt;/p&gt;&lt;p style=&quot;margin: 0px ; margin-left: 8px&quot;&gt;BOCode&lt;/p&gt;&lt;p style=&quot;margin: 0px ; margin-left: 8px&quot;&gt;BOName&lt;/p&gt;&lt;p style=&quot;margin: 0px ; margin-left: 8px&quot;&gt;CBDID&lt;/p&gt;&lt;p style=&quot;margin: 0px ; margin-left: 8px&quot;&gt;CustomerName&lt;/p&gt;&lt;p style=&quot;margin: 0px ; margin-left: 8px&quot;&gt;BOType&lt;/p&gt;&lt;p style=&quot;margin: 0px ; margin-left: 8px&quot;&gt;CreateType&lt;/p&gt;&lt;p style=&quot;margin: 0px ; margin-left: 8px&quot;&gt;BOStageState&lt;/p&gt;&lt;p style=&quot;margin: 0px ; margin-left: 8px&quot;&gt;BOStatusID&lt;/p&gt;&lt;p style=&quot;margin: 0px ; margin-left: 8px&quot;&gt;&lt;br&gt;&lt;/p&gt;" style="verticalAlign=top;align=left;overflow=fill;fontSize=12;fontFamily=Helvetica;html=1;strokeColor=#FF6392;shadow=1;fillColor=#FFE45E;rounded=1;" parent="1" vertex="1">
          <mxGeometry x="400.0000000000002" y="-109.99999999999943" width="160" height="150" as="geometry" />
        </mxCell>
        <mxCell id="1fg1kgdo0Z-w_NWFr2Vj-5" style="edgeStyle=orthogonalEdgeStyle;rounded=0;orthogonalLoop=1;jettySize=auto;html=1;entryX=0.5;entryY=1;entryDx=0;entryDy=0;" parent="1" source="1fg1kgdo0Z-w_NWFr2Vj-13" target="1fg1kgdo0Z-w_NWFr2Vj-3" edge="1">
          <mxGeometry relative="1" as="geometry" />
        </mxCell>
        <mxCell id="1fg1kgdo0Z-w_NWFr2Vj-6" style="edgeStyle=orthogonalEdgeStyle;curved=1;rounded=0;orthogonalLoop=1;jettySize=auto;html=1;" parent="1" source="1fg1kgdo0Z-w_NWFr2Vj-13" target="1fg1kgdo0Z-w_NWFr2Vj-4" edge="1">
          <mxGeometry relative="1" as="geometry" />
        </mxCell>
        <mxCell id="1fg1kgdo0Z-w_NWFr2Vj-7" style="edgeStyle=orthogonalEdgeStyle;curved=1;rounded=0;orthogonalLoop=1;jettySize=auto;html=1;entryX=0.505;entryY=1.058;entryDx=0;entryDy=0;entryPerimeter=0;" parent="1" source="1fg1kgdo0Z-w_NWFr2Vj-13" target="1fg1kgdo0Z-w_NWFr2Vj-60" edge="1">
          <mxGeometry relative="1" as="geometry" />
        </mxCell>
        <mxCell id="1fg1kgdo0Z-w_NWFr2Vj-8" style="edgeStyle=orthogonalEdgeStyle;curved=1;rounded=0;orthogonalLoop=1;jettySize=auto;html=1;entryX=1;entryY=0.5;entryDx=0;entryDy=0;" parent="1" source="1fg1kgdo0Z-w_NWFr2Vj-13" target="1fg1kgdo0Z-w_NWFr2Vj-62" edge="1">
          <mxGeometry relative="1" as="geometry" />
        </mxCell>
        <mxCell id="1fg1kgdo0Z-w_NWFr2Vj-9" style="edgeStyle=orthogonalEdgeStyle;curved=1;rounded=0;orthogonalLoop=1;jettySize=auto;html=1;entryX=0.5;entryY=1;entryDx=0;entryDy=0;" parent="1" source="1fg1kgdo0Z-w_NWFr2Vj-13" target="1fg1kgdo0Z-w_NWFr2Vj-47" edge="1">
          <mxGeometry relative="1" as="geometry" />
        </mxCell>
        <mxCell id="1fg1kgdo0Z-w_NWFr2Vj-10" value="" style="edgeStyle=orthogonalEdgeStyle;curved=1;rounded=0;orthogonalLoop=1;jettySize=auto;html=1;" parent="1" source="1fg1kgdo0Z-w_NWFr2Vj-13" target="1fg1kgdo0Z-w_NWFr2Vj-16" edge="1">
          <mxGeometry relative="1" as="geometry" />
        </mxCell>
        <mxCell id="1fg1kgdo0Z-w_NWFr2Vj-11" style="edgeStyle=orthogonalEdgeStyle;rounded=0;orthogonalLoop=1;jettySize=auto;html=1;entryX=0;entryY=0.5;entryDx=0;entryDy=0;" parent="1" source="1fg1kgdo0Z-w_NWFr2Vj-13" target="1fg1kgdo0Z-w_NWFr2Vj-37" edge="1">
          <mxGeometry relative="1" as="geometry" />
        </mxCell>
        <mxCell id="1fg1kgdo0Z-w_NWFr2Vj-12" style="edgeStyle=orthogonalEdgeStyle;curved=1;rounded=0;orthogonalLoop=1;jettySize=auto;html=1;entryX=0.5;entryY=0;entryDx=0;entryDy=0;" parent="1" source="1fg1kgdo0Z-w_NWFr2Vj-13" target="1fg1kgdo0Z-w_NWFr2Vj-69" edge="1">
          <mxGeometry relative="1" as="geometry">
            <Array as="points">
              <mxPoint x="860" y="631" />
              <mxPoint x="860" y="1300" />
              <mxPoint x="1014" y="1300" />
            </Array>
          </mxGeometry>
        </mxCell>
        <mxCell id="1fg1kgdo0Z-w_NWFr2Vj-13" value="&lt;p style=&quot;margin: 0px ; margin-top: 4px ; text-align: center ; text-decoration: underline&quot;&gt;&lt;strong&gt;BOProjectInfo&lt;/strong&gt;&lt;/p&gt;&lt;hr&gt;&lt;p style=&quot;margin: 0px ; margin-left: 8px&quot;&gt;BOProjectID&lt;/p&gt;&lt;p style=&quot;margin: 0px ; margin-left: 8px&quot;&gt;&lt;span&gt;BOID&lt;/span&gt;&lt;/p&gt;&lt;p style=&quot;margin: 0px ; margin-left: 8px&quot;&gt;&lt;span&gt;ProjectName&lt;/span&gt;&lt;/p&gt;&lt;p style=&quot;margin: 0px ; margin-left: 8px&quot;&gt;ProjectCode&lt;/p&gt;&lt;p style=&quot;margin: 0px ; margin-left: 8px&quot;&gt;BOProjectType&lt;/p&gt;&lt;p style=&quot;margin: 0px ; margin-left: 8px&quot;&gt;ProductGroupCode&lt;/p&gt;&lt;p style=&quot;margin: 0px ; margin-left: 8px&quot;&gt;BOProjectStatusID&lt;/p&gt;&lt;p style=&quot;margin: 0px ; margin-left: 8px&quot;&gt;SaleType&lt;/p&gt;&lt;p style=&quot;margin: 0px ; margin-left: 8px&quot;&gt;FunnelID&lt;/p&gt;&lt;p style=&quot;margin: 0px ; margin-left: 8px&quot;&gt;IsBigSingle&lt;/p&gt;" style="verticalAlign=top;align=left;overflow=fill;fontSize=12;fontFamily=Helvetica;html=1;strokeColor=#FF6392;shadow=1;fillColor=#FFE45E;rounded=1;" parent="1" vertex="1">
          <mxGeometry x="595.54" y="539.51" width="151.08" height="181.96" as="geometry" />
        </mxCell>
        <mxCell id="1fg1kgdo0Z-w_NWFr2Vj-14" value="" style="edgeStyle=orthogonalEdgeStyle;curved=1;rounded=0;orthogonalLoop=1;jettySize=auto;html=1;" parent="1" source="1fg1kgdo0Z-w_NWFr2Vj-16" target="1fg1kgdo0Z-w_NWFr2Vj-27" edge="1">
          <mxGeometry relative="1" as="geometry" />
        </mxCell>
        <mxCell id="1fg1kgdo0Z-w_NWFr2Vj-15" value="" style="edgeStyle=orthogonalEdgeStyle;curved=1;rounded=0;orthogonalLoop=1;jettySize=auto;html=1;" parent="1" source="1fg1kgdo0Z-w_NWFr2Vj-16" target="1fg1kgdo0Z-w_NWFr2Vj-19" edge="1">
          <mxGeometry relative="1" as="geometry" />
        </mxCell>
        <mxCell id="1fg1kgdo0Z-w_NWFr2Vj-16" value="&lt;p style=&quot;margin: 4px 0px 0px ; text-align: center&quot;&gt;&lt;b&gt;&lt;u&gt;Contract&lt;/u&gt;&lt;/b&gt;&lt;br&gt;&lt;/p&gt;&lt;hr&gt;&lt;p style=&quot;margin: 0px ; margin-left: 8px&quot;&gt;ContractID,&lt;/p&gt;&lt;p style=&quot;margin: 0px ; margin-left: 8px&quot;&gt;ContractCode,&lt;/p&gt;&lt;p style=&quot;margin: 0px ; margin-left: 8px&quot;&gt;ContractTypeID,&lt;/p&gt;&lt;p style=&quot;margin: 0px ; margin-left: 8px&quot;&gt;ContractPropertyID,&lt;/p&gt;&lt;p style=&quot;margin: 0px ; margin-left: 8px&quot;&gt;ContractModelID,&lt;/p&gt;&lt;p style=&quot;margin: 0px ; margin-left: 8px&quot;&gt;BOID,&lt;/p&gt;&lt;p style=&quot;margin: 0px ; margin-left: 8px&quot;&gt;CDBFormalID,&lt;/p&gt;&lt;p style=&quot;margin: 0px ; margin-left: 8px&quot;&gt;IsSign,&lt;/p&gt;&lt;p style=&quot;margin: 0px ; margin-left: 8px&quot;&gt;IsNoContract,&lt;/p&gt;&lt;p style=&quot;margin: 0px ; margin-left: 8px&quot;&gt;Status,&lt;/p&gt;&lt;p style=&quot;margin: 0px ; margin-left: 8px&quot;&gt;IsReplyContract&lt;/p&gt;" style="verticalAlign=top;align=left;overflow=fill;fontSize=12;fontFamily=Helvetica;html=1;strokeColor=#FF6392;shadow=1;fillColor=#FFE45E;rounded=1;" parent="1" vertex="1">
          <mxGeometry x="595.54" y="801.47" width="151.08" height="218.53" as="geometry" />
        </mxCell>
        <mxCell id="1fg1kgdo0Z-w_NWFr2Vj-17" value="" style="edgeStyle=orthogonalEdgeStyle;curved=1;rounded=0;orthogonalLoop=1;jettySize=auto;html=1;" parent="1" source="1fg1kgdo0Z-w_NWFr2Vj-19" target="1fg1kgdo0Z-w_NWFr2Vj-23" edge="1">
          <mxGeometry relative="1" as="geometry" />
        </mxCell>
        <mxCell id="1fg1kgdo0Z-w_NWFr2Vj-18" value="" style="edgeStyle=orthogonalEdgeStyle;curved=1;rounded=0;orthogonalLoop=1;jettySize=auto;html=1;" parent="1" source="1fg1kgdo0Z-w_NWFr2Vj-19" target="1fg1kgdo0Z-w_NWFr2Vj-20" edge="1">
          <mxGeometry relative="1" as="geometry" />
        </mxCell>
        <mxCell id="1fg1kgdo0Z-w_NWFr2Vj-19" value="&lt;p style=&quot;margin: 4px 0px 0px ; text-align: center&quot;&gt;&lt;b&gt;&lt;u&gt;OrderApply&lt;/u&gt;&lt;/b&gt;&lt;br&gt;&lt;/p&gt;&lt;hr&gt;&lt;p style=&quot;margin: 0px ; margin-left: 8px&quot;&gt;OrderApplyID,&lt;/p&gt;&lt;p style=&quot;margin: 0px ; margin-left: 8px&quot;&gt;ContractID,&lt;/p&gt;&lt;p style=&quot;margin: 0px ; margin-left: 8px&quot;&gt;BOID,&lt;/p&gt;&lt;p style=&quot;margin: 0px ; margin-left: 8px&quot;&gt;OrderApplyCode,&lt;/p&gt;&lt;p style=&quot;margin: 0px ; margin-left: 8px&quot;&gt;OrderApplyStatus,&lt;/p&gt;&lt;p style=&quot;margin: 0px ; margin-left: 8px&quot;&gt;OrderStatus,&lt;/p&gt;&lt;p style=&quot;margin: 0px ; margin-left: 8px&quot;&gt;OrderApplyType,&lt;/p&gt;&lt;p style=&quot;margin: 0px ; margin-left: 8px&quot;&gt;SignBIll,&lt;/p&gt;&lt;p style=&quot;margin: 0px ; margin-left: 8px&quot;&gt;OrderSourceID,&lt;/p&gt;&lt;p style=&quot;margin: 0px ; margin-left: 8px&quot;&gt;IsForced,&lt;/p&gt;" style="verticalAlign=top;align=left;overflow=fill;fontSize=12;fontFamily=Helvetica;html=1;strokeColor=#FF6392;shadow=1;fillColor=#FFE45E;rounded=1;" parent="1" vertex="1">
          <mxGeometry x="595.54" y="1100" width="151.08" height="218.53" as="geometry" />
        </mxCell>
        <mxCell id="1fg1kgdo0Z-w_NWFr2Vj-20" value="&lt;p style=&quot;margin: 4px 0px 0px ; text-align: center&quot;&gt;&lt;b&gt;&lt;u&gt;OrderApplyProduct&lt;/u&gt;&lt;/b&gt;&lt;br&gt;&lt;/p&gt;&lt;hr&gt;&lt;p style=&quot;margin: 0px ; margin-left: 8px&quot;&gt;OrderApplyProductID,&lt;/p&gt;&lt;p style=&quot;margin: 0px ; margin-left: 8px&quot;&gt;OrderApplyID,&lt;/p&gt;&lt;p style=&quot;margin: 0px ; margin-left: 8px&quot;&gt;ProductID,&lt;/p&gt;&lt;p style=&quot;margin: 0px ; margin-left: 8px&quot;&gt;CProductID,&lt;/p&gt;&lt;p style=&quot;margin: 0px ; margin-left: 8px&quot;&gt;Amount,&lt;/p&gt;&lt;p style=&quot;margin: 0px ; margin-left: 8px&quot;&gt;UnitPrice,&lt;/p&gt;&lt;p style=&quot;margin: 0px ; margin-left: 8px&quot;&gt;ApprovalAmount,&lt;/p&gt;&lt;p style=&quot;margin: 0px ; margin-left: 8px&quot;&gt;OrderAmount,&lt;/p&gt;&lt;p style=&quot;margin: 0px ; margin-left: 8px&quot;&gt;DummySOCode&lt;/p&gt;" style="verticalAlign=top;align=left;overflow=fill;fontSize=12;fontFamily=Helvetica;html=1;strokeColor=#FF6392;shadow=1;fillColor=#FFE45E;rounded=1;" parent="1" vertex="1">
          <mxGeometry x="364.4599999999999" y="1100" width="151.08" height="218.53" as="geometry" />
        </mxCell>
        <mxCell id="1fg1kgdo0Z-w_NWFr2Vj-21" value="" style="edgeStyle=orthogonalEdgeStyle;curved=1;rounded=0;orthogonalLoop=1;jettySize=auto;html=1;" parent="1" source="1fg1kgdo0Z-w_NWFr2Vj-23" target="1fg1kgdo0Z-w_NWFr2Vj-25" edge="1">
          <mxGeometry relative="1" as="geometry" />
        </mxCell>
        <mxCell id="1fg1kgdo0Z-w_NWFr2Vj-22" value="" style="edgeStyle=orthogonalEdgeStyle;curved=1;rounded=0;orthogonalLoop=1;jettySize=auto;html=1;" parent="1" source="1fg1kgdo0Z-w_NWFr2Vj-23" target="1fg1kgdo0Z-w_NWFr2Vj-24" edge="1">
          <mxGeometry relative="1" as="geometry" />
        </mxCell>
        <mxCell id="1fg1kgdo0Z-w_NWFr2Vj-23" value="&lt;p style=&quot;margin: 4px 0px 0px ; text-align: center&quot;&gt;&lt;b&gt;&lt;u&gt;OrderApplyApproval&lt;/u&gt;&lt;/b&gt;&lt;br&gt;&lt;/p&gt;&lt;hr&gt;&lt;p style=&quot;margin: 0px ; margin-left: 8px&quot;&gt;OrderApplyApprovalID,&lt;/p&gt;&lt;p style=&quot;margin: 0px ; margin-left: 8px&quot;&gt;OrderApplyID,&lt;/p&gt;&lt;p style=&quot;margin: 0px ; margin-left: 8px&quot;&gt;ApproveResult,&lt;/p&gt;&lt;p style=&quot;margin: 0px ; margin-left: 8px&quot;&gt;OrderStatus&lt;/p&gt;" style="verticalAlign=top;align=left;overflow=fill;fontSize=12;fontFamily=Helvetica;html=1;strokeColor=#FF6392;shadow=1;fillColor=#FFE45E;rounded=1;" parent="1" vertex="1">
          <mxGeometry x="595.54" y="1398.53" width="151.08" height="171.47" as="geometry" />
        </mxCell>
        <mxCell id="1fg1kgdo0Z-w_NWFr2Vj-24" value="&lt;p style=&quot;margin: 4px 0px 0px ; text-align: center&quot;&gt;&lt;b&gt;&lt;u&gt;OrderApplyApprovalProduct&lt;/u&gt;&lt;/b&gt;&lt;br&gt;&lt;/p&gt;&lt;hr&gt;&lt;p style=&quot;margin: 0px ; margin-left: 8px&quot;&gt;OrderApplyProductID,&lt;/p&gt;&lt;p style=&quot;margin: 0px ; margin-left: 8px&quot;&gt;OrderApplyApprovalID,&lt;/p&gt;&lt;p style=&quot;margin: 0px ; margin-left: 8px&quot;&gt;ProductID,&lt;/p&gt;&lt;p style=&quot;margin: 0px ; margin-left: 8px&quot;&gt;CProductID,&lt;/p&gt;&lt;p style=&quot;margin: 0px ; margin-left: 8px&quot;&gt;AppoveProductAmount,&lt;/p&gt;&lt;p style=&quot;margin: 0px ; margin-left: 8px&quot;&gt;OrderProductAmount,&lt;/p&gt;&lt;p style=&quot;margin: 0px ; margin-left: 8px&quot;&gt;UnitPrice,&lt;/p&gt;&lt;p style=&quot;margin: 0px ; margin-left: 8px&quot;&gt;POCode,&lt;/p&gt;&lt;p style=&quot;margin: 0px ; margin-left: 8px&quot;&gt;DummySoCode&lt;/p&gt;" style="verticalAlign=top;align=left;overflow=fill;fontSize=12;fontFamily=Helvetica;html=1;strokeColor=#FF6392;shadow=1;fillColor=#FFE45E;rounded=1;" parent="1" vertex="1">
          <mxGeometry x="320" y="1398.53" width="195.54" height="171.47" as="geometry" />
        </mxCell>
        <mxCell id="1fg1kgdo0Z-w_NWFr2Vj-25" value="&lt;p style=&quot;margin: 4px 0px 0px ; text-align: center&quot;&gt;&lt;b&gt;&lt;u&gt;Order&lt;/u&gt;&lt;/b&gt;&lt;br&gt;&lt;/p&gt;&lt;hr&gt;&lt;p style=&quot;margin: 0px ; margin-left: 8px&quot;&gt;OrderID,&lt;/p&gt;&lt;p style=&quot;margin: 0px ; margin-left: 8px&quot;&gt;SourceType,&lt;/p&gt;&lt;p style=&quot;margin: 0px ; margin-left: 8px&quot;&gt;OrderNo,&lt;/p&gt;&lt;p style=&quot;margin: 0px ; margin-left: 8px&quot;&gt;BOID,&lt;/p&gt;&lt;p style=&quot;margin: 0px ; margin-left: 8px&quot;&gt;ContractID,&lt;/p&gt;&lt;p style=&quot;margin: 0px ; margin-left: 8px&quot;&gt;OrderApplyApprovalID,&lt;/p&gt;&lt;p style=&quot;margin: 0px ; margin-left: 8px&quot;&gt;GABOrderApplyID,&lt;/p&gt;&lt;p style=&quot;margin: 0px ; margin-left: 8px&quot;&gt;State,&lt;/p&gt;&lt;p style=&quot;margin: 0px ; margin-left: 8px&quot;&gt;POCode,&lt;/p&gt;&lt;p style=&quot;margin: 0px ; margin-left: 8px&quot;&gt;SOCode,&lt;/p&gt;&lt;p style=&quot;margin: 0px ; margin-left: 8px&quot;&gt;OperationTypeID,&lt;/p&gt;&lt;p style=&quot;margin: 0px ; margin-left: 8px&quot;&gt;OrderType,&lt;/p&gt;&lt;p style=&quot;margin: 0px ; margin-left: 8px&quot;&gt;DirectOrderID,&lt;/p&gt;&lt;p style=&quot;margin: 0px ; margin-left: 8px&quot;&gt;ServiceTypeID,&lt;/p&gt;&lt;p style=&quot;margin: 0px ; margin-left: 8px&quot;&gt;IsServiceInvoice,&lt;/p&gt;&lt;p style=&quot;margin: 0px ; margin-left: 8px&quot;&gt;InvoiceType,&lt;/p&gt;&lt;p style=&quot;margin: 0px ; margin-left: 8px&quot;&gt;IsForced,&lt;/p&gt;" style="verticalAlign=top;align=left;overflow=fill;fontSize=12;fontFamily=Helvetica;html=1;strokeColor=#FF6392;shadow=1;fillColor=#FFE45E;rounded=1;" parent="1" vertex="1">
          <mxGeometry x="595.54" y="1697.06" width="151.08" height="292.94" as="geometry" />
        </mxCell>
        <mxCell id="1fg1kgdo0Z-w_NWFr2Vj-26" value="" style="edgeStyle=orthogonalEdgeStyle;rounded=0;orthogonalLoop=1;jettySize=auto;html=1;" parent="1" source="1fg1kgdo0Z-w_NWFr2Vj-27" target="1fg1kgdo0Z-w_NWFr2Vj-28" edge="1">
          <mxGeometry relative="1" as="geometry" />
        </mxCell>
        <mxCell id="1fg1kgdo0Z-w_NWFr2Vj-27" value="&lt;p style=&quot;margin: 4px 0px 0px ; text-align: center&quot;&gt;&lt;b&gt;&lt;u&gt;ContractProduct&lt;/u&gt;&lt;/b&gt;&lt;br&gt;&lt;/p&gt;&lt;hr&gt;&lt;p style=&quot;margin: 0px ; margin-left: 8px&quot;&gt;CProductID,&lt;/p&gt;&lt;p style=&quot;margin: 0px ; margin-left: 8px&quot;&gt;ContractID,&lt;/p&gt;&lt;p style=&quot;margin: 0px ; margin-left: 8px&quot;&gt;ProductID,&lt;/p&gt;&lt;p style=&quot;margin: 0px ; margin-left: 8px&quot;&gt;ProductType,&lt;/p&gt;&lt;p style=&quot;margin: 0px ; margin-left: 8px&quot;&gt;ProductGroupCode,&lt;/p&gt;&lt;p style=&quot;margin: 0px ; margin-left: 8px&quot;&gt;BOMCode,&lt;/p&gt;&lt;p style=&quot;margin: 0px ; margin-left: 8px&quot;&gt;Amount,&lt;/p&gt;&lt;p style=&quot;margin: 0px ; margin-left: 8px&quot;&gt;Price,&lt;/p&gt;&lt;p style=&quot;margin: 0px ; margin-left: 8px&quot;&gt;OldBomCode&lt;/p&gt;" style="verticalAlign=top;align=left;overflow=fill;fontSize=12;fontFamily=Helvetica;html=1;strokeColor=#FF6392;shadow=1;fillColor=#FFE45E;rounded=1;" parent="1" vertex="1">
          <mxGeometry x="370" y="801.47" width="151.08" height="218.53" as="geometry" />
        </mxCell>
        <mxCell id="1fg1kgdo0Z-w_NWFr2Vj-28" value="&lt;p style=&quot;margin: 4px 0px 0px ; text-align: center&quot;&gt;&lt;b&gt;&lt;u&gt;ContractSubProduct&lt;/u&gt;&lt;/b&gt;&lt;br&gt;&lt;/p&gt;&lt;hr&gt;&lt;p style=&quot;margin: 0px ; margin-left: 8px&quot;&gt;CSubProductID,&lt;/p&gt;&lt;p style=&quot;margin: 0px ; margin-left: 8px&quot;&gt;CContractProductID,&lt;/p&gt;&lt;p style=&quot;margin: 0px ; margin-left: 8px&quot;&gt;ProductID,&lt;/p&gt;&lt;p style=&quot;margin: 0px ; margin-left: 8px&quot;&gt;ProductType,&lt;/p&gt;&lt;p style=&quot;margin: 0px ; margin-left: 8px&quot;&gt;Amount,&lt;/p&gt;&lt;p style=&quot;margin: 0px ; margin-left: 8px&quot;&gt;Price&lt;/p&gt;&lt;p style=&quot;margin: 0px ; margin-left: 8px&quot;&gt;&lt;br&gt;&lt;/p&gt;" style="verticalAlign=top;align=left;overflow=fill;fontSize=12;fontFamily=Helvetica;html=1;strokeColor=#FF6392;shadow=1;fillColor=#66FF66;rounded=1;" parent="1" vertex="1">
          <mxGeometry x="130" y="840" width="151.08" height="140" as="geometry" />
        </mxCell>
        <mxCell id="1fg1kgdo0Z-w_NWFr2Vj-29" value="" style="edgeStyle=none;rounded=0;orthogonalLoop=1;jettySize=auto;html=1;" parent="1" source="1fg1kgdo0Z-w_NWFr2Vj-30" target="1fg1kgdo0Z-w_NWFr2Vj-38" edge="1">
          <mxGeometry relative="1" as="geometry" />
        </mxCell>
        <mxCell id="1fg1kgdo0Z-w_NWFr2Vj-30" value="&lt;p style=&quot;margin: 0px ; margin-top: 4px ; text-align: center ; text-decoration: underline&quot;&gt;&lt;b&gt;X86_SubProductInfo&lt;/b&gt;&lt;/p&gt;&lt;p style=&quot;margin: 0px ; margin-left: 8px&quot;&gt;SubProductID&lt;/p&gt;&lt;p style=&quot;margin: 0px ; margin-left: 8px&quot;&gt;ProductID&lt;/p&gt;&lt;p style=&quot;margin: 0px ; margin-left: 8px&quot;&gt;BOProjectID&lt;/p&gt;&lt;p style=&quot;margin: 0px ; margin-left: 8px&quot;&gt;BomCode&amp;nbsp;&lt;/p&gt;&lt;p style=&quot;margin: 0px ; margin-left: 8px&quot;&gt;ProductGroupCode&lt;/p&gt;&lt;p style=&quot;margin: 0px ; margin-left: 8px&quot;&gt;ProductType&lt;/p&gt;&lt;p style=&quot;margin: 0px ; margin-left: 8px&quot;&gt;ProductName&lt;/p&gt;&lt;p style=&quot;margin: 0px ; margin-left: 8px&quot;&gt;ProductAmount&lt;/p&gt;&lt;p style=&quot;margin: 0px ; margin-left: 8px&quot;&gt;SelfNumber&lt;/p&gt;&lt;p style=&quot;margin: 0px ; margin-left: 8px&quot;&gt;ParentNumber&lt;/p&gt;&lt;p style=&quot;margin: 0px ; margin-left: 8px&quot;&gt;ProductTypeCode&lt;br&gt;&lt;/p&gt;&lt;p style=&quot;margin: 0px ; margin-left: 8px&quot;&gt;ProductIdentifierTypeCode&lt;br&gt;&lt;/p&gt;&lt;p style=&quot;margin: 0px ; margin-left: 8px&quot;&gt;&lt;br&gt;&lt;/p&gt;" style="verticalAlign=top;align=left;overflow=fill;fontSize=12;fontFamily=Helvetica;html=1;strokeColor=#FF6392;shadow=1;fillColor=#FFE45E;rounded=1;" parent="1" vertex="1">
          <mxGeometry x="910" y="-250" width="170" height="210" as="geometry" />
        </mxCell>
        <mxCell id="1fg1kgdo0Z-w_NWFr2Vj-31" style="edgeStyle=orthogonalEdgeStyle;rounded=0;orthogonalLoop=1;jettySize=auto;html=1;" parent="1" source="1fg1kgdo0Z-w_NWFr2Vj-37" target="1fg1kgdo0Z-w_NWFr2Vj-51" edge="1">
          <mxGeometry relative="1" as="geometry">
            <mxPoint x="1090" y="181" as="sourcePoint" />
          </mxGeometry>
        </mxCell>
        <mxCell id="1fg1kgdo0Z-w_NWFr2Vj-32" style="edgeStyle=orthogonalEdgeStyle;rounded=0;orthogonalLoop=1;jettySize=auto;html=1;entryX=0;entryY=0.5;entryDx=0;entryDy=0;exitX=1;exitY=0.5;exitDx=0;exitDy=0;" parent="1" source="1fg1kgdo0Z-w_NWFr2Vj-37" target="1fg1kgdo0Z-w_NWFr2Vj-46" edge="1">
          <mxGeometry relative="1" as="geometry">
            <Array as="points">
              <mxPoint x="1240" y="181" />
              <mxPoint x="1240" y="-265" />
            </Array>
            <mxPoint x="1130" y="180.5" as="sourcePoint" />
          </mxGeometry>
        </mxCell>
        <mxCell id="1fg1kgdo0Z-w_NWFr2Vj-33" style="edgeStyle=orthogonalEdgeStyle;rounded=0;orthogonalLoop=1;jettySize=auto;html=1;" parent="1" source="1fg1kgdo0Z-w_NWFr2Vj-37" target="1fg1kgdo0Z-w_NWFr2Vj-30" edge="1">
          <mxGeometry relative="1" as="geometry" />
        </mxCell>
        <mxCell id="1fg1kgdo0Z-w_NWFr2Vj-34" style="edgeStyle=orthogonalEdgeStyle;rounded=0;orthogonalLoop=1;jettySize=auto;html=1;entryX=0;entryY=0.5;entryDx=0;entryDy=0;" parent="1" source="1fg1kgdo0Z-w_NWFr2Vj-37" target="1fg1kgdo0Z-w_NWFr2Vj-44" edge="1">
          <mxGeometry relative="1" as="geometry">
            <Array as="points">
              <mxPoint x="1240" y="181" />
              <mxPoint x="1240" y="-82" />
            </Array>
          </mxGeometry>
        </mxCell>
        <mxCell id="1fg1kgdo0Z-w_NWFr2Vj-35" style="edgeStyle=orthogonalEdgeStyle;rounded=0;orthogonalLoop=1;jettySize=auto;html=1;" parent="1" source="1fg1kgdo0Z-w_NWFr2Vj-37" target="1fg1kgdo0Z-w_NWFr2Vj-42" edge="1">
          <mxGeometry relative="1" as="geometry" />
        </mxCell>
        <mxCell id="1fg1kgdo0Z-w_NWFr2Vj-36" style="edgeStyle=orthogonalEdgeStyle;rounded=0;orthogonalLoop=1;jettySize=auto;html=1;entryX=0.004;entryY=0.512;entryDx=0;entryDy=0;entryPerimeter=0;" parent="1" source="1fg1kgdo0Z-w_NWFr2Vj-37" target="1fg1kgdo0Z-w_NWFr2Vj-58" edge="1">
          <mxGeometry relative="1" as="geometry" />
        </mxCell>
        <mxCell id="1fg1kgdo0Z-w_NWFr2Vj-37" value="&lt;p style=&quot;margin: 0px ; margin-top: 4px ; text-align: center ; text-decoration: underline&quot;&gt;&lt;b&gt;BOProductInfo&lt;/b&gt;&lt;/p&gt;&lt;hr&gt;&lt;p style=&quot;margin: 0px ; margin-left: 8px&quot;&gt;ProductID&lt;/p&gt;&lt;p style=&quot;margin: 0px ; margin-left: 8px&quot;&gt;BOProjectID&lt;/p&gt;&lt;p style=&quot;margin: 0px ; margin-left: 8px&quot;&gt;BOProjectSolutionID&lt;br&gt;&lt;/p&gt;&lt;p style=&quot;margin: 0px ; margin-left: 8px&quot;&gt;OLDBOMCode,&lt;/p&gt;&lt;p style=&quot;margin: 0px ; margin-left: 8px&quot;&gt;BOMCode,&lt;/p&gt;&lt;p style=&quot;margin: 0px ; margin-left: 8px&quot;&gt;ProductType(CTO,STD,方案)&lt;/p&gt;&lt;p style=&quot;margin: 0px ; margin-left: 8px&quot;&gt;ProductName,&lt;/p&gt;&lt;p style=&quot;margin: 0px ; margin-left: 8px&quot;&gt;ProductGroupCode,&lt;/p&gt;&lt;p style=&quot;margin: 0px ; margin-left: 8px&quot;&gt;ProductAmount,&lt;/p&gt;&lt;p style=&quot;margin: 0px ; margin-left: 8px&quot;&gt;PriceApproveLevel&lt;br&gt;&lt;/p&gt;&lt;p style=&quot;margin: 0px ; margin-left: 8px&quot;&gt;BargainStatus,&lt;/p&gt;&lt;p style=&quot;margin: 0px ; margin-left: 8px&quot;&gt;FastPathStatus,&lt;/p&gt;&lt;p style=&quot;margin: 0px ; margin-left: 8px&quot;&gt;PreparationStepsResult,&lt;/p&gt;&lt;p style=&quot;margin: 0px ; margin-left: 8px&quot;&gt;&lt;br&gt;&lt;/p&gt;" style="verticalAlign=top;align=left;overflow=fill;fontSize=12;fontFamily=Helvetica;html=1;strokeColor=#FF6392;shadow=1;fillColor=#FF6666;rounded=1;" parent="1" vertex="1">
          <mxGeometry x="915" y="60.98000000000002" width="160" height="239.02" as="geometry" />
        </mxCell>
        <mxCell id="1fg1kgdo0Z-w_NWFr2Vj-38" value="&lt;p style=&quot;margin: 4px 0px 0px ; text-align: center&quot;&gt;&lt;b&gt;&lt;u&gt;X86_BOCBOMProductConfig&lt;/u&gt;&lt;/b&gt;&lt;br&gt;&lt;/p&gt;&lt;p style=&quot;margin: 0px ; margin-left: 8px&quot;&gt;SubProductID&lt;/p&gt;&lt;p style=&quot;margin: 0px ; margin-left: 8px&quot;&gt;FeatureCode&lt;/p&gt;&lt;p style=&quot;margin: 0px ; margin-left: 8px&quot;&gt;Quantity&lt;/p&gt;&lt;p style=&quot;margin: 0px ; margin-left: 8px&quot;&gt;FeatureName&lt;/p&gt;&lt;p style=&quot;margin: 0px ; margin-left: 8px&quot;&gt;&lt;br&gt;&lt;/p&gt;&lt;p style=&quot;margin: 0px ; margin-left: 8px&quot;&gt;&lt;br&gt;&lt;/p&gt;" style="verticalAlign=top;align=left;overflow=fill;fontSize=12;fontFamily=Helvetica;html=1;strokeColor=#FF6392;shadow=1;fillColor=#FFE45E;rounded=1;" parent="1" vertex="1">
          <mxGeometry x="890" y="-415" width="210" height="85" as="geometry" />
        </mxCell>
        <mxCell id="1fg1kgdo0Z-w_NWFr2Vj-39" style="edgeStyle=orthogonalEdgeStyle;rounded=0;orthogonalLoop=1;jettySize=auto;html=1;" parent="1" source="1fg1kgdo0Z-w_NWFr2Vj-40" target="1fg1kgdo0Z-w_NWFr2Vj-37" edge="1">
          <mxGeometry relative="1" as="geometry" />
        </mxCell>
        <mxCell id="1fg1kgdo0Z-w_NWFr2Vj-40" value="&lt;p style=&quot;margin: 4px 0px 0px ; text-align: center&quot;&gt;&lt;b&gt;&lt;u&gt;BOSolutionProductRef&lt;/u&gt;&lt;/b&gt;&lt;br&gt;&lt;/p&gt;&lt;hr&gt;&lt;p style=&quot;margin: 0px ; margin-left: 8px&quot;&gt;ProductID,&lt;/p&gt;&lt;p style=&quot;margin: 0px ; margin-left: 8px&quot;&gt;BOPackageID,&lt;/p&gt;&lt;p style=&quot;margin: 0px ; margin-left: 8px&quot;&gt;BOID,&lt;/p&gt;&lt;p style=&quot;margin: 0px ; margin-left: 8px&quot;&gt;BOProjectID,&lt;/p&gt;&lt;p style=&quot;margin: 0px ; margin-left: 8px&quot;&gt;BundleClassID,&lt;/p&gt;&lt;p style=&quot;margin: 0px ; margin-left: 8px&quot;&gt;ProductGroupCode,&lt;/p&gt;&lt;p style=&quot;margin: 0px ; margin-left: 8px&quot;&gt;OriginalProductGroupCode,&lt;/p&gt;&lt;p style=&quot;margin: 0px ; margin-left: 8px&quot;&gt;Sort&lt;/p&gt;" style="verticalAlign=top;align=left;overflow=fill;fontSize=12;fontFamily=Helvetica;html=1;strokeColor=#FF6392;shadow=1;fillColor=#FFE45E;rounded=1;" parent="1" vertex="1">
          <mxGeometry x="591.08" width="160" height="180" as="geometry" />
        </mxCell>
        <mxCell id="1fg1kgdo0Z-w_NWFr2Vj-41" value="" style="edgeStyle=orthogonalEdgeStyle;rounded=0;orthogonalLoop=1;jettySize=auto;html=1;" parent="1" source="1fg1kgdo0Z-w_NWFr2Vj-42" target="1fg1kgdo0Z-w_NWFr2Vj-43" edge="1">
          <mxGeometry relative="1" as="geometry" />
        </mxCell>
        <mxCell id="1fg1kgdo0Z-w_NWFr2Vj-42" value="&lt;p style=&quot;margin: 0px ; margin-top: 4px ; text-align: center ; text-decoration: underline&quot;&gt;&lt;strong&gt;BOSolutionInstanceInfo&lt;/strong&gt;&lt;/p&gt;&lt;hr&gt;&lt;p style=&quot;margin: 0px ; margin-left: 8px&quot;&gt;ID&lt;/p&gt;&lt;p style=&quot;margin: 0px ; margin-left: 8px&quot;&gt;BOProjectID&lt;/p&gt;&lt;p style=&quot;margin: 0px ; margin-left: 8px&quot;&gt;ProductID&lt;/p&gt;&lt;p style=&quot;margin: 0px ; margin-left: 8px&quot;&gt;TemplateID 模板ID&lt;/p&gt;&lt;p style=&quot;margin: 0px ; margin-left: 8px&quot;&gt;&lt;span&gt;TemplateCode 模板Code&lt;/span&gt;&lt;/p&gt;&lt;p style=&quot;margin: 0px ; margin-left: 8px&quot;&gt;TemplateName 模板名称&lt;/p&gt;&lt;p style=&quot;margin: 0px ; margin-left: 8px&quot;&gt;InstanceID 实例ID&lt;/p&gt;&lt;p style=&quot;margin: 0px ; margin-left: 8px&quot;&gt;InstanceName 实例名称&lt;/p&gt;&lt;p style=&quot;margin: 0px ; margin-left: 8px&quot;&gt;TemplateTypeID 场景ID&lt;/p&gt;&lt;p style=&quot;margin: 0px ; margin-left: 8px&quot;&gt;ProductCategory 产品类别（默认Solution）&lt;/p&gt;&lt;p style=&quot;margin: 0px ; margin-left: 8px&quot;&gt;ApplicationPrice 申请价&lt;/p&gt;&lt;p style=&quot;margin: 0px ; margin-left: 8px&quot;&gt;DisplayOrderBy 展示顺序&lt;/p&gt;&lt;p style=&quot;margin: 0px ; margin-left: 8px&quot;&gt;TR1 集成安装测试步骤&lt;/p&gt;&lt;p style=&quot;margin: 0px ; margin-left: 8px&quot;&gt;TR2&lt;/p&gt;&lt;p style=&quot;margin: 0px ; margin-left: 8px&quot;&gt;TR3&lt;/p&gt;&lt;p style=&quot;margin: 0px ; margin-left: 8px&quot;&gt;TR4&lt;/p&gt;&lt;p style=&quot;margin: 0px ; margin-left: 8px&quot;&gt;TR5&lt;/p&gt;&lt;p style=&quot;margin: 0px ; margin-left: 8px&quot;&gt;PackageCode&lt;/p&gt;&lt;p style=&quot;margin: 0px ; margin-left: 8px&quot;&gt;ProductGroupCode&lt;/p&gt;&lt;p style=&quot;margin: 0px ; margin-left: 8px&quot;&gt;Unit（单位）&lt;br&gt;&lt;/p&gt;&lt;p style=&quot;margin: 0px ; margin-left: 8px&quot;&gt;Currency 币种&lt;/p&gt;&lt;p style=&quot;margin: 0px ; margin-left: 8px&quot;&gt;TaxClassification（税收分类）&lt;/p&gt;&lt;p style=&quot;margin: 0px ; margin-left: 8px&quot;&gt;SpecificationModel（规格型号）&lt;/p&gt;&lt;p style=&quot;margin: 0px ; margin-left: 8px&quot;&gt;TemplateComments 模板备注&lt;/p&gt;&lt;p style=&quot;margin: 0px ; margin-left: 8px&quot;&gt;&lt;br&gt;&lt;/p&gt;&lt;p style=&quot;margin: 0px ; margin-left: 8px&quot;&gt;&lt;br&gt;&lt;/p&gt;&lt;p style=&quot;margin: 0px ; margin-left: 8px&quot;&gt;&lt;br&gt;&lt;/p&gt;" style="verticalAlign=top;align=left;overflow=fill;fontSize=12;fontFamily=Helvetica;html=1;strokeColor=#FF6392;shadow=1;fillColor=#66FF66;rounded=1;" parent="1" vertex="1">
          <mxGeometry x="900.54" y="498.53" width="188.92" height="391.47" as="geometry" />
        </mxCell>
        <mxCell id="1fg1kgdo0Z-w_NWFr2Vj-43" value="&lt;p style=&quot;margin: 0px ; margin-top: 4px ; text-align: center ; text-decoration: underline&quot;&gt;&lt;strong&gt;BOSolutionInstance&lt;/strong&gt;&lt;b&gt;&lt;u&gt;Annex&lt;/u&gt;&lt;/b&gt;&lt;/p&gt;&lt;hr&gt;&lt;p style=&quot;margin: 0px ; margin-left: 8px&quot;&gt;ID&lt;/p&gt;&lt;p style=&quot;margin: 0px ; margin-left: 8px&quot;&gt;BOSolutionInstanceInfoID&lt;/p&gt;&lt;p style=&quot;margin: 0px ; margin-left: 8px&quot;&gt;AnnexURL&lt;/p&gt;&lt;p style=&quot;margin: 0px ; margin-left: 8px&quot;&gt;AnnexType(附件类型)&lt;/p&gt;&lt;p style=&quot;margin: 0px ; margin-left: 8px&quot;&gt;&lt;br&gt;&lt;/p&gt;&lt;p style=&quot;margin: 0px ; margin-left: 8px&quot;&gt;&lt;br&gt;&lt;/p&gt;&lt;p style=&quot;margin: 0px ; margin-left: 8px&quot;&gt;&lt;br&gt;&lt;/p&gt;&lt;p style=&quot;margin: 0px ; margin-left: 8px&quot;&gt;&lt;br&gt;&lt;/p&gt;" style="verticalAlign=top;align=left;overflow=fill;fontSize=12;fontFamily=Helvetica;html=1;strokeColor=#FF6392;shadow=1;fillColor=#66FF66;rounded=1;" parent="1" vertex="1">
          <mxGeometry x="900.54" y="950" width="188.92" height="130" as="geometry" />
        </mxCell>
        <mxCell id="1fg1kgdo0Z-w_NWFr2Vj-44" value="&lt;p style=&quot;margin: 4px 0px 0px ; text-align: center&quot;&gt;&lt;b&gt;&lt;u&gt;BOCBOMProductConfig&lt;/u&gt;&lt;/b&gt;&lt;br&gt;&lt;/p&gt;&lt;hr&gt;&lt;p style=&quot;margin: 0px ; margin-left: 8px&quot;&gt;ProductID,&lt;/p&gt;&lt;p style=&quot;margin: 0px ; margin-left: 8px&quot;&gt;R3Code,&lt;/p&gt;&lt;p style=&quot;margin: 0px ; margin-left: 8px&quot;&gt;R3VCode&lt;/p&gt;&lt;p style=&quot;margin: 0px ; margin-left: 8px&quot;&gt;&lt;br&gt;&lt;/p&gt;" style="verticalAlign=top;align=left;overflow=fill;fontSize=12;fontFamily=Helvetica;html=1;strokeColor=#FF6392;shadow=1;fillColor=#FFE45E;rounded=1;" parent="1" vertex="1">
          <mxGeometry x="1390" y="-124.99999999999999" width="195" height="85" as="geometry" />
        </mxCell>
        <mxCell id="1fg1kgdo0Z-w_NWFr2Vj-45" value="" style="edgeStyle=none;rounded=0;orthogonalLoop=1;jettySize=auto;html=1;" parent="1" source="1fg1kgdo0Z-w_NWFr2Vj-46" target="1fg1kgdo0Z-w_NWFr2Vj-44" edge="1">
          <mxGeometry relative="1" as="geometry" />
        </mxCell>
        <mxCell id="1fg1kgdo0Z-w_NWFr2Vj-46" value="&lt;p style=&quot;margin: 4px 0px 0px ; text-align: center&quot;&gt;&lt;b&gt;&lt;u&gt;BOCBOMProductConfigMapping&lt;/u&gt;&lt;/b&gt;&lt;br&gt;&lt;/p&gt;&lt;hr&gt;&lt;p style=&quot;margin: 0px ; margin-left: 8px&quot;&gt;ProductID,&lt;/p&gt;&lt;p style=&quot;margin: 0px ; margin-left: 8px&quot;&gt;R3Code,&lt;/p&gt;&lt;p style=&quot;margin: 0px ; margin-left: 8px&quot;&gt;R3VCode,&lt;/p&gt;&lt;p style=&quot;margin: 0px ; margin-left: 8px&quot;&gt;QTYR3Code,&lt;/p&gt;&lt;p style=&quot;margin: 0px ; margin-left: 8px&quot;&gt;QTYR3VCode,&lt;/p&gt;&lt;p style=&quot;margin: 0px ; margin-left: 8px&quot;&gt;QTYNum&amp;nbsp;&lt;/p&gt;&lt;p style=&quot;margin: 0px ; margin-left: 8px&quot;&gt;&lt;br&gt;&lt;/p&gt;" style="verticalAlign=top;align=left;overflow=fill;fontSize=12;fontFamily=Helvetica;html=1;strokeColor=#FF6392;shadow=1;fillColor=#FFE45E;rounded=1;" parent="1" vertex="1">
          <mxGeometry x="1387.5" y="-330" width="200" height="130" as="geometry" />
        </mxCell>
        <mxCell id="1fg1kgdo0Z-w_NWFr2Vj-47" value="&lt;p style=&quot;margin: 0px ; margin-top: 4px ; text-align: center ; text-decoration: underline&quot;&gt;&lt;b&gt;BOProjectCategory&lt;/b&gt;&lt;/p&gt;&lt;p style=&quot;margin: 0px ; margin-left: 8px&quot;&gt;ID&lt;/p&gt;&lt;p style=&quot;margin: 0px ; margin-left: 8px&quot;&gt;ProjectID&lt;/p&gt;&lt;p style=&quot;margin: 0px ; margin-left: 8px&quot;&gt;BusinessGroupCode&lt;/p&gt;&lt;p style=&quot;margin: 0px ; margin-left: 8px&quot;&gt;BusinessGroupName&lt;/p&gt;&lt;p style=&quot;margin: 0px ; margin-left: 8px&quot;&gt;Level1Code&lt;/p&gt;&lt;p style=&quot;margin: 0px ; margin-left: 8px&quot;&gt;Level1Name&lt;/p&gt;&lt;p style=&quot;margin: 0px ; margin-left: 8px&quot;&gt;Level2Code&lt;/p&gt;&lt;p style=&quot;margin: 0px ; margin-left: 8px&quot;&gt;Level2Name&lt;/p&gt;&lt;p style=&quot;margin: 0px ; margin-left: 8px&quot;&gt;Level3Code&lt;/p&gt;&lt;p style=&quot;margin: 0px ; margin-left: 8px&quot;&gt;Level3Name&lt;/p&gt;&lt;p style=&quot;margin: 0px ; margin-left: 8px&quot;&gt;Level4Code&lt;/p&gt;&lt;p style=&quot;margin: 0px ; margin-left: 8px&quot;&gt;Level4Name&lt;/p&gt;&lt;p style=&quot;margin: 0px ; margin-left: 8px&quot;&gt;&lt;br&gt;&lt;/p&gt;" style="verticalAlign=top;align=left;overflow=fill;fontSize=12;fontFamily=Helvetica;html=1;strokeColor=#FF6392;shadow=1;fillColor=#FFE45E;rounded=1;" parent="1" vertex="1">
          <mxGeometry x="210" y="340" width="160" height="205" as="geometry" />
        </mxCell>
        <mxCell id="1fg1kgdo0Z-w_NWFr2Vj-48" value="" style="edgeStyle=orthogonalEdgeStyle;rounded=0;orthogonalLoop=1;jettySize=auto;html=1;entryX=0;entryY=0.5;entryDx=0;entryDy=0;" parent="1" source="1fg1kgdo0Z-w_NWFr2Vj-51" target="1fg1kgdo0Z-w_NWFr2Vj-55" edge="1">
          <mxGeometry relative="1" as="geometry">
            <mxPoint x="1667.4999999999995" y="325.98" as="targetPoint" />
          </mxGeometry>
        </mxCell>
        <mxCell id="1fg1kgdo0Z-w_NWFr2Vj-49" style="edgeStyle=orthogonalEdgeStyle;rounded=0;orthogonalLoop=1;jettySize=auto;html=1;entryX=0;entryY=0.5;entryDx=0;entryDy=0;" parent="1" source="1fg1kgdo0Z-w_NWFr2Vj-51" target="1fg1kgdo0Z-w_NWFr2Vj-53" edge="1">
          <mxGeometry relative="1" as="geometry" />
        </mxCell>
        <mxCell id="1fg1kgdo0Z-w_NWFr2Vj-50" style="edgeStyle=orthogonalEdgeStyle;rounded=0;orthogonalLoop=1;jettySize=auto;html=1;" parent="1" source="1fg1kgdo0Z-w_NWFr2Vj-51" target="1fg1kgdo0Z-w_NWFr2Vj-52" edge="1">
          <mxGeometry relative="1" as="geometry" />
        </mxCell>
        <mxCell id="1fg1kgdo0Z-w_NWFr2Vj-51" value="&lt;p style=&quot;margin: 4px 0px 0px ; text-align: center&quot;&gt;&lt;b&gt;&lt;u&gt;BOSpecialBOMProductInfo&lt;/u&gt;&lt;/b&gt;&lt;br&gt;&lt;/p&gt;&lt;hr&gt;&lt;p style=&quot;margin: 0px ; margin-left: 8px&quot;&gt;ProductID,&lt;/p&gt;&lt;p style=&quot;margin: 0px ; margin-left: 8px&quot;&gt;SpecialBOMProductID&lt;/p&gt;" style="verticalAlign=top;align=left;overflow=fill;fontSize=12;fontFamily=Helvetica;html=1;strokeColor=#FF6392;shadow=1;fillColor=#FFE45E;rounded=1;" parent="1" vertex="1">
          <mxGeometry x="1387.5" y="145.49" width="180" height="70" as="geometry" />
        </mxCell>
        <mxCell id="1fg1kgdo0Z-w_NWFr2Vj-52" value="&lt;p style=&quot;margin: 4px 0px 0px ; text-align: center&quot;&gt;&lt;b&gt;&lt;u&gt;BOSpecialBOMProductApply&lt;/u&gt;&lt;/b&gt;&lt;br&gt;&lt;/p&gt;&lt;hr&gt;&lt;p style=&quot;margin: 0px ; margin-left: 8px&quot;&gt;SpecialBOMProductID,&lt;/p&gt;&lt;p style=&quot;margin: 0px ; margin-left: 8px&quot;&gt;SpecialBOMProductCode,&lt;/p&gt;&lt;p style=&quot;margin: 0px ; margin-left: 8px&quot;&gt;OriginalBOMCode,&lt;/p&gt;&lt;p style=&quot;margin: 0px ; margin-left: 8px&quot;&gt;OriginalName,&lt;/p&gt;&lt;p style=&quot;margin: 0px ; margin-left: 8px&quot;&gt;NewName,&lt;/p&gt;&lt;p style=&quot;margin: 0px ; margin-left: 8px&quot;&gt;OldName,&lt;/p&gt;&lt;p style=&quot;margin: 0px ; margin-left: 8px&quot;&gt;SpecialDesc,&lt;/p&gt;&lt;p style=&quot;margin: 0px ; margin-left: 8px&quot;&gt;SpecialType,&lt;/p&gt;&lt;p style=&quot;margin: 0px ; margin-left: 8px&quot;&gt;baseBOMType,&lt;/p&gt;&lt;p style=&quot;margin: 0px ; margin-left: 8px&quot;&gt;SourceType,&lt;/p&gt;" style="verticalAlign=top;align=left;overflow=fill;fontSize=12;fontFamily=Helvetica;html=1;strokeColor=#FF6392;shadow=1;fillColor=#FFE45E;rounded=1;" parent="1" vertex="1">
          <mxGeometry x="1380" y="290" width="195" height="180" as="geometry" />
        </mxCell>
        <mxCell id="1fg1kgdo0Z-w_NWFr2Vj-53" value="&lt;p style=&quot;margin: 4px 0px 0px ; text-align: center&quot;&gt;&lt;b&gt;&lt;u&gt;BOBOMProductConfigApplyMapping&lt;/u&gt;&lt;/b&gt;&lt;br&gt;&lt;/p&gt;&lt;hr&gt;&lt;p style=&quot;margin: 0px ; margin-left: 8px&quot;&gt;SpecialBOMProductID,&lt;/p&gt;&lt;p style=&quot;margin: 0px ; margin-left: 8px&quot;&gt;R3Code,&lt;/p&gt;&lt;p style=&quot;margin: 0px ; margin-left: 8px&quot;&gt;R3VCode,&lt;/p&gt;&lt;p style=&quot;margin: 0px ; margin-left: 8px&quot;&gt;QTYR3Code,&lt;/p&gt;&lt;p style=&quot;margin: 0px ; margin-left: 8px&quot;&gt;QTYR3VCode,&lt;/p&gt;&lt;p style=&quot;margin: 0px ; margin-left: 8px&quot;&gt;QTYNum&lt;/p&gt;" style="verticalAlign=top;align=left;overflow=fill;fontSize=12;fontFamily=Helvetica;html=1;strokeColor=#FF6392;shadow=1;fillColor=#FFE45E;rounded=1;" parent="1" vertex="1">
          <mxGeometry x="1702.5" y="10.000000000000014" width="220" height="120" as="geometry" />
        </mxCell>
        <mxCell id="1fg1kgdo0Z-w_NWFr2Vj-54" value="" style="edgeStyle=orthogonalEdgeStyle;rounded=0;orthogonalLoop=1;jettySize=auto;html=1;" parent="1" source="1fg1kgdo0Z-w_NWFr2Vj-55" target="1fg1kgdo0Z-w_NWFr2Vj-53" edge="1">
          <mxGeometry relative="1" as="geometry" />
        </mxCell>
        <mxCell id="1fg1kgdo0Z-w_NWFr2Vj-55" value="&lt;p style=&quot;margin: 4px 0px 0px ; text-align: center&quot;&gt;&lt;b&gt;&lt;u&gt;BOBOMProductConfigApply&lt;/u&gt;&lt;/b&gt;&lt;br&gt;&lt;/p&gt;&lt;hr&gt;&lt;p style=&quot;margin: 0px ; margin-left: 8px&quot;&gt;SpecialBOMProductID,&lt;/p&gt;&lt;p style=&quot;margin: 0px ; margin-left: 8px&quot;&gt;R3Code,&lt;/p&gt;&lt;p style=&quot;margin: 0px ; margin-left: 8px&quot;&gt;R3VCode&lt;/p&gt;" style="verticalAlign=top;align=left;overflow=fill;fontSize=12;fontFamily=Helvetica;html=1;strokeColor=#FF6392;shadow=1;fillColor=#FFE45E;rounded=1;" parent="1" vertex="1">
          <mxGeometry x="1702.5" y="215.49" width="217.5" height="80" as="geometry" />
        </mxCell>
        <mxCell id="1fg1kgdo0Z-w_NWFr2Vj-56" value="" style="edgeStyle=orthogonalEdgeStyle;rounded=0;orthogonalLoop=1;jettySize=auto;html=1;" parent="1" source="1fg1kgdo0Z-w_NWFr2Vj-58" target="1fg1kgdo0Z-w_NWFr2Vj-59" edge="1">
          <mxGeometry relative="1" as="geometry" />
        </mxCell>
        <mxCell id="1fg1kgdo0Z-w_NWFr2Vj-57" style="edgeStyle=orthogonalEdgeStyle;rounded=0;orthogonalLoop=1;jettySize=auto;html=1;" parent="1" source="1fg1kgdo0Z-w_NWFr2Vj-58" target="1fg1kgdo0Z-w_NWFr2Vj-66" edge="1">
          <mxGeometry relative="1" as="geometry" />
        </mxCell>
        <mxCell id="1fg1kgdo0Z-w_NWFr2Vj-58" value="&lt;p style=&quot;margin: 0px ; margin-top: 4px ; text-align: center ; text-decoration: underline&quot;&gt;&lt;strong&gt;SolutionSubProduct&lt;/strong&gt;&lt;/p&gt;&lt;p style=&quot;margin: 0px ; margin-left: 8px&quot;&gt;ID&lt;/p&gt;&lt;p style=&quot;margin: 0px ; margin-left: 8px&quot;&gt;BOProjectID&lt;/p&gt;&lt;p style=&quot;margin: 0px ; margin-left: 8px&quot;&gt;PackageID&lt;/p&gt;&lt;p style=&quot;margin: 0px ; margin-left: 8px&quot;&gt;ProductID,&lt;/p&gt;&lt;p style=&quot;margin: 0px ; margin-left: 8px&quot;&gt;OLDBomCode&lt;/p&gt;&lt;p style=&quot;margin: 0px ; margin-left: 8px&quot;&gt;BomCode,&lt;/p&gt;&lt;p style=&quot;margin: 0px 0px 0px 8px&quot;&gt;ProductName,&lt;/p&gt;&lt;p style=&quot;margin: 0px 0px 0px 8px&quot;&gt;ProductGroupCode,&lt;/p&gt;&lt;p style=&quot;margin: 0px 0px 0px 8px&quot;&gt;ProductAmount,&lt;/p&gt;&lt;p style=&quot;margin: 0px 0px 0px 8px&quot;&gt;ProductType（CTO，STD，KIT,&lt;/p&gt;&lt;p style=&quot;margin: 0px 0px 0px 8px&quot;&gt;非常规）&lt;/p&gt;&lt;p style=&quot;margin: 0px 0px 0px 8px&quot;&gt;SelfNumber，&lt;/p&gt;&lt;p style=&quot;margin: 0px 0px 0px 8px&quot;&gt;ParentNumber&lt;/p&gt;&lt;p style=&quot;margin: 0px 0px 0px 8px&quot;&gt;PriceApproveLevel&lt;br&gt;&lt;/p&gt;&lt;p style=&quot;margin: 0px 0px 0px 8px&quot;&gt;BargainStatus,&lt;/p&gt;&lt;p style=&quot;margin: 0px 0px 0px 8px&quot;&gt;FastPathStatus,&lt;/p&gt;&lt;p style=&quot;margin: 0px 0px 0px 8px&quot;&gt;PreparationStepsResult,&lt;/p&gt;&lt;p style=&quot;margin: 0px 0px 0px 8px&quot;&gt;IntegrationType（集成方案）&lt;/p&gt;&lt;p style=&quot;margin: 0px 0px 0px 8px&quot;&gt;SolutionIntegrator（集成工厂）&lt;/p&gt;&lt;p style=&quot;margin: 0px 0px 0px 8px&quot;&gt;SolutionSubProductID&lt;/p&gt;&lt;p style=&quot;margin: 0px 0px 0px 8px&quot;&gt;ExecuteUnitPrice 申请单价&lt;br&gt;&lt;/p&gt;&lt;p style=&quot;margin: 0px 0px 0px 8px&quot;&gt;ApproveExecuteUnitPrice&amp;nbsp;&lt;br&gt;&lt;/p&gt;&lt;p style=&quot;margin: 0px 0px 0px 8px&quot;&gt;ExecuteUnitPriceT2&lt;br&gt;&lt;/p&gt;&lt;p style=&quot;margin: 0px 0px 0px 8px&quot;&gt;ApproveExecuteUnitPriceT2&lt;br&gt;&lt;/p&gt;&lt;p style=&quot;margin: 0px 0px 0px 8px&quot;&gt;ReferencePrice参考成本&lt;/p&gt;&lt;p style=&quot;margin: 0px 0px 0px 8px&quot;&gt;StandardCost 标准成本&lt;/p&gt;&lt;p style=&quot;margin: 0px 0px 0px 8px&quot;&gt;CostPrice成本价&lt;/p&gt;&lt;p style=&quot;margin: 0px 0px 0px 8px&quot;&gt;AgentPrice代理价&lt;/p&gt;&lt;p style=&quot;margin: 0px 0px 0px 8px&quot;&gt;SpecialCost 特价&lt;/p&gt;&lt;p style=&quot;margin: 0px 0px 0px 8px&quot;&gt;Level1Price行业总监价&lt;/p&gt;&lt;p style=&quot;margin: 0px 0px 0px 8px&quot;&gt;Level2Price分区总经理价&lt;/p&gt;&lt;p style=&quot;margin: 0px 0px 0px 8px&quot;&gt;Level3Price分区总监价&lt;/p&gt;&lt;p style=&quot;margin: 0px 0px 0px 8px&quot;&gt;Level4price客户经理价&lt;/p&gt;&lt;p style=&quot;margin: 0px 0px 0px 8px&quot;&gt;NONBMCRate&lt;br&gt;&lt;/p&gt;&lt;p style=&quot;margin: 0px 0px 0px 8px&quot;&gt;MAPrice&lt;br&gt;&lt;/p&gt;&lt;p style=&quot;margin: 0px 0px 0px 8px&quot;&gt;IR ？？？&lt;/p&gt;&lt;p style=&quot;margin: 0px 0px 0px 8px&quot;&gt;StandardCostGP&lt;/p&gt;&lt;p style=&quot;margin: 0px 0px 0px 8px&quot;&gt;StandardCostGPPercent&lt;/p&gt;&lt;p style=&quot;margin: 0px 0px 0px 8px&quot;&gt;CostPriceGP&lt;/p&gt;&lt;p style=&quot;margin: 0px 0px 0px 8px&quot;&gt;CostPriceGPPercent&lt;/p&gt;&lt;p style=&quot;margin: 0px 0px 0px 8px&quot;&gt;SpecialCostGP&lt;/p&gt;&lt;p style=&quot;margin: 0px 0px 0px 8px&quot;&gt;SpecialCostGPPercent&lt;/p&gt;&lt;p style=&quot;margin: 0px 0px 0px 8px&quot;&gt;NetIncomePriceRMB 净收入&lt;/p&gt;&lt;p style=&quot;margin: 0px ; margin-left: 8px&quot;&gt;&lt;br&gt;&lt;/p&gt;&lt;p style=&quot;margin: 0px ; margin-left: 8px&quot;&gt;&lt;br&gt;&lt;/p&gt;" style="verticalAlign=top;align=left;overflow=fill;fontSize=12;fontFamily=Helvetica;html=1;strokeColor=#FF6392;shadow=1;fillColor=#66FF66;rounded=1;" parent="1" vertex="1">
          <mxGeometry x="1382.5" y="710" width="190" height="640" as="geometry" />
        </mxCell>
        <mxCell id="1fg1kgdo0Z-w_NWFr2Vj-59" value="&lt;p style=&quot;margin: 4px 0px 0px ; text-align: center&quot;&gt;&lt;b&gt;&lt;u&gt;SolutionSubProductConfig&lt;/u&gt;&lt;/b&gt;&lt;br&gt;&lt;/p&gt;&lt;p style=&quot;margin: 0px ; margin-left: 8px&quot;&gt;SolutionSubProductID&lt;/p&gt;&lt;p style=&quot;margin: 0px ; margin-left: 8px&quot;&gt;R3Code&lt;/p&gt;&lt;p style=&quot;margin: 0px ; margin-left: 8px&quot;&gt;R3VCode&lt;/p&gt;&lt;p style=&quot;margin: 0px ; margin-left: 8px&quot;&gt;Quantity&lt;/p&gt;&lt;p style=&quot;margin: 0px ; margin-left: 8px&quot;&gt;&lt;br&gt;&lt;/p&gt;&lt;p style=&quot;margin: 0px ; margin-left: 8px&quot;&gt;&lt;br&gt;&lt;/p&gt;" style="verticalAlign=top;align=left;overflow=fill;fontSize=12;fontFamily=Helvetica;html=1;strokeColor=#FF6392;shadow=1;fillColor=#66FF66;rounded=1;" parent="1" vertex="1">
          <mxGeometry x="1660" y="985" width="210" height="90" as="geometry" />
        </mxCell>
        <mxCell id="1fg1kgdo0Z-w_NWFr2Vj-60" value="&lt;p style=&quot;margin: 4px 0px 0px ; text-align: center&quot;&gt;&lt;b&gt;&lt;u&gt;BOProjectStatesInfo&lt;/u&gt;&lt;/b&gt;&lt;br&gt;&lt;/p&gt;&lt;hr&gt;&lt;p style=&quot;margin: 0px ; margin-left: 8px&quot;&gt;BOProjectID,&lt;/p&gt;&lt;p style=&quot;margin: 0px ; margin-left: 8px&quot;&gt;BOID,&lt;/p&gt;&lt;p style=&quot;margin: 0px ; margin-left: 8px&quot;&gt;BOProjcetStageState,&lt;/p&gt;&lt;p style=&quot;margin: 0px ; margin-left: 8px&quot;&gt;ApproveLevel,&lt;/p&gt;&lt;p style=&quot;margin: 0px ; margin-left: 8px&quot;&gt;PriceApproveStateID,&lt;/p&gt;&lt;p style=&quot;margin: 0px ; margin-left: 8px&quot;&gt;PriceApproveResult,&lt;/p&gt;&lt;p style=&quot;margin: 0px ; margin-left: 8px&quot;&gt;SPFeeApproveStateID,&lt;/p&gt;&lt;p style=&quot;margin: 0px ; margin-left: 8px&quot;&gt;SPFeeApproveResult,&lt;/p&gt;" style="verticalAlign=top;align=left;overflow=fill;fontSize=12;fontFamily=Helvetica;html=1;strokeColor=#FF6392;shadow=1;fillColor=#FFE45E;rounded=1;" parent="1" vertex="1">
          <mxGeometry x="310" y="89.50999999999999" width="151.08" height="181.96" as="geometry" />
        </mxCell>
        <mxCell id="1fg1kgdo0Z-w_NWFr2Vj-61" value="" style="edgeStyle=orthogonalEdgeStyle;curved=1;rounded=0;orthogonalLoop=1;jettySize=auto;html=1;" parent="1" source="1fg1kgdo0Z-w_NWFr2Vj-62" target="1fg1kgdo0Z-w_NWFr2Vj-63" edge="1">
          <mxGeometry relative="1" as="geometry" />
        </mxCell>
        <mxCell id="1fg1kgdo0Z-w_NWFr2Vj-62" value="&lt;p style=&quot;margin: 4px 0px 0px ; text-align: center&quot;&gt;&lt;b&gt;&lt;u&gt;BOProjectApproveInfo&lt;/u&gt;&lt;/b&gt;&lt;br&gt;&lt;/p&gt;&lt;hr&gt;&lt;p style=&quot;margin: 0px ; margin-left: 8px&quot;&gt;ApproveID,&lt;/p&gt;&lt;p style=&quot;margin: 0px ; margin-left: 8px&quot;&gt;ApproveType,&lt;/p&gt;&lt;p style=&quot;margin: 0px ; margin-left: 8px&quot;&gt;BOProjectID,&lt;/p&gt;&lt;p style=&quot;margin: 0px ; margin-left: 8px&quot;&gt;EPLevelID,&lt;/p&gt;&lt;p style=&quot;margin: 0px ; margin-left: 8px&quot;&gt;ApproveResult,&lt;/p&gt;&lt;p style=&quot;margin: 0px ; margin-left: 8px&quot;&gt;ApproveFlag,&lt;/p&gt;&lt;p style=&quot;margin: 0px ; margin-left: 8px&quot;&gt;PriceModifyFlag&lt;/p&gt;&lt;p style=&quot;margin: 0px ; margin-left: 8px&quot;&gt;&lt;br&gt;&lt;/p&gt;" style="verticalAlign=top;align=left;overflow=fill;fontSize=12;fontFamily=Helvetica;html=1;strokeColor=#FF6392;shadow=1;fillColor=#FFE45E;rounded=1;" parent="1" vertex="1">
          <mxGeometry x="170" y="657.99" width="170" height="143.48" as="geometry" />
        </mxCell>
        <mxCell id="1fg1kgdo0Z-w_NWFr2Vj-63" value="&lt;p style=&quot;margin: 4px 0px 0px ; text-align: center&quot;&gt;&lt;b&gt;&lt;u&gt;ProductApproveControl&lt;/u&gt;&lt;/b&gt;&lt;br&gt;&lt;/p&gt;&lt;hr&gt;&lt;p style=&quot;margin: 0px ; margin-left: 8px&quot;&gt;ApproveID,&lt;/p&gt;&lt;p style=&quot;margin: 0px ; margin-left: 8px&quot;&gt;ProductID,&lt;/p&gt;&lt;p style=&quot;margin: 0px ; margin-left: 8px&quot;&gt;ApprovedPrice&lt;/p&gt;&lt;p style=&quot;margin: 0px ; margin-left: 8px&quot;&gt;&lt;br&gt;&lt;/p&gt;" style="verticalAlign=top;align=left;overflow=fill;fontSize=12;fontFamily=Helvetica;html=1;strokeColor=#FF6392;shadow=1;fillColor=#FFE45E;rounded=1;" parent="1" vertex="1">
          <mxGeometry x="-60" y="672.01" width="160" height="90" as="geometry" />
        </mxCell>
        <mxCell id="1fg1kgdo0Z-w_NWFr2Vj-64" value="&lt;p style=&quot;margin: 0px ; margin-top: 4px ; text-align: center ; text-decoration: underline&quot;&gt;&lt;b&gt;BOProjectCategory&lt;/b&gt;&lt;/p&gt;&lt;p style=&quot;margin: 0px ; margin-left: 8px&quot;&gt;ID&lt;/p&gt;&lt;p style=&quot;margin: 0px ; margin-left: 8px&quot;&gt;ProjectID&lt;/p&gt;&lt;p style=&quot;margin: 0px ; margin-left: 8px&quot;&gt;BusinessGroupCode&lt;/p&gt;&lt;p style=&quot;margin: 0px ; margin-left: 8px&quot;&gt;BusinessGroupName&lt;/p&gt;&lt;p style=&quot;margin: 0px ; margin-left: 8px&quot;&gt;Level1Code&lt;/p&gt;&lt;p style=&quot;margin: 0px ; margin-left: 8px&quot;&gt;Level1Name&lt;/p&gt;&lt;p style=&quot;margin: 0px ; margin-left: 8px&quot;&gt;Level2Code&lt;/p&gt;&lt;p style=&quot;margin: 0px ; margin-left: 8px&quot;&gt;Level2Name&lt;/p&gt;&lt;p style=&quot;margin: 0px ; margin-left: 8px&quot;&gt;Level3Code&lt;/p&gt;&lt;p style=&quot;margin: 0px ; margin-left: 8px&quot;&gt;Level3Name&lt;/p&gt;&lt;p style=&quot;margin: 0px ; margin-left: 8px&quot;&gt;Level4Code&lt;/p&gt;&lt;p style=&quot;margin: 0px ; margin-left: 8px&quot;&gt;Level4Name&lt;/p&gt;&lt;p style=&quot;margin: 0px ; margin-left: 8px&quot;&gt;&lt;br&gt;&lt;/p&gt;" style="verticalAlign=top;align=left;overflow=fill;fontSize=12;fontFamily=Helvetica;html=1;strokeColor=#FF6392;shadow=1;fillColor=#66FF66;rounded=1;" parent="1" vertex="1">
          <mxGeometry x="210" y="340" width="160" height="205" as="geometry" />
        </mxCell>
        <mxCell id="1fg1kgdo0Z-w_NWFr2Vj-65" style="edgeStyle=orthogonalEdgeStyle;rounded=0;orthogonalLoop=1;jettySize=auto;html=1;entryX=0.5;entryY=1;entryDx=0;entryDy=0;" parent="1" source="1fg1kgdo0Z-w_NWFr2Vj-66" target="1fg1kgdo0Z-w_NWFr2Vj-52" edge="1">
          <mxGeometry relative="1" as="geometry" />
        </mxCell>
        <mxCell id="1fg1kgdo0Z-w_NWFr2Vj-66" value="&lt;p style=&quot;margin: 4px 0px 0px ; text-align: center&quot;&gt;&lt;b&gt;&lt;u&gt;BOSpecialBOMSolutionSubProductInfo&lt;/u&gt;&lt;/b&gt;&lt;br&gt;&lt;/p&gt;&lt;hr&gt;&lt;span&gt;SubProductID,&lt;br&gt;&lt;/span&gt;&lt;span&gt;SpecialBOMProductID&lt;/span&gt;&lt;span&gt;&lt;br&gt;&lt;/span&gt;" style="verticalAlign=top;align=left;overflow=fill;fontSize=12;fontFamily=Helvetica;html=1;strokeColor=#FF6392;shadow=1;fillColor=#66FF66;rounded=1;" parent="1" vertex="1">
          <mxGeometry x="1343.13" y="539.51" width="268.75" height="100" as="geometry" />
        </mxCell>
        <mxCell id="1fg1kgdo0Z-w_NWFr2Vj-67" value="" style="edgeStyle=orthogonalEdgeStyle;rounded=0;orthogonalLoop=1;jettySize=auto;html=1;" parent="1" source="1fg1kgdo0Z-w_NWFr2Vj-69" target="1fg1kgdo0Z-w_NWFr2Vj-75" edge="1">
          <mxGeometry relative="1" as="geometry" />
        </mxCell>
        <mxCell id="1fg1kgdo0Z-w_NWFr2Vj-68" value="" style="edgeStyle=orthogonalEdgeStyle;curved=1;rounded=0;orthogonalLoop=1;jettySize=auto;html=1;" parent="1" source="1fg1kgdo0Z-w_NWFr2Vj-69" target="1fg1kgdo0Z-w_NWFr2Vj-72" edge="1">
          <mxGeometry relative="1" as="geometry" />
        </mxCell>
        <mxCell id="1fg1kgdo0Z-w_NWFr2Vj-69" value="&lt;p style=&quot;margin: 4px 0px 0px ; text-align: center&quot;&gt;&lt;b&gt;&lt;u&gt;OrderPackage&lt;/u&gt;&lt;/b&gt;&lt;br&gt;&lt;/p&gt;&lt;hr&gt;&lt;p style=&quot;margin: 0px ; margin-left: 8px&quot;&gt;BOProjectID&lt;/p&gt;&lt;p style=&quot;margin: 0px ; margin-left: 8px&quot;&gt;&lt;span&gt;BOID&lt;/span&gt;&lt;/p&gt;&lt;p style=&quot;margin: 0px ; margin-left: 8px&quot;&gt;&lt;span&gt;ProjectName&lt;/span&gt;&lt;/p&gt;&lt;p style=&quot;margin: 0px ; margin-left: 8px&quot;&gt;ProjectCode&lt;/p&gt;&lt;p style=&quot;margin: 0px ; margin-left: 8px&quot;&gt;BOProjectType&lt;/p&gt;&lt;p style=&quot;margin: 0px ; margin-left: 8px&quot;&gt;ProductGroupCode&lt;/p&gt;&lt;p style=&quot;margin: 0px ; margin-left: 8px&quot;&gt;BOProjectStatusID&lt;/p&gt;&lt;p style=&quot;margin: 0px ; margin-left: 8px&quot;&gt;SaleType&lt;/p&gt;&lt;p style=&quot;margin: 0px ; margin-left: 8px&quot;&gt;FunnelID&lt;/p&gt;&lt;p style=&quot;margin: 0px ; margin-left: 8px&quot;&gt;IsBigSingle&lt;/p&gt;" style="verticalAlign=top;align=left;overflow=fill;fontSize=12;fontFamily=Helvetica;html=1;strokeColor=#FF6392;shadow=1;fillColor=#FFE45E;rounded=1;" parent="1" vertex="1">
          <mxGeometry x="938.38" y="1398.53" width="151.08" height="181.96" as="geometry" />
        </mxCell>
        <mxCell id="1fg1kgdo0Z-w_NWFr2Vj-70" value="" style="edgeStyle=orthogonalEdgeStyle;curved=1;rounded=0;orthogonalLoop=1;jettySize=auto;html=1;" parent="1" source="1fg1kgdo0Z-w_NWFr2Vj-72" target="1fg1kgdo0Z-w_NWFr2Vj-74" edge="1">
          <mxGeometry relative="1" as="geometry" />
        </mxCell>
        <mxCell id="1fg1kgdo0Z-w_NWFr2Vj-71" value="" style="edgeStyle=orthogonalEdgeStyle;curved=1;rounded=0;orthogonalLoop=1;jettySize=auto;html=1;" parent="1" source="1fg1kgdo0Z-w_NWFr2Vj-72" target="1fg1kgdo0Z-w_NWFr2Vj-73" edge="1">
          <mxGeometry relative="1" as="geometry" />
        </mxCell>
        <mxCell id="1fg1kgdo0Z-w_NWFr2Vj-72" value="&lt;p style=&quot;margin: 4px 0px 0px ; text-align: center&quot;&gt;&lt;b&gt;&lt;u&gt;TempClientOrder&lt;/u&gt;&lt;/b&gt;&lt;br&gt;&lt;/p&gt;&lt;hr&gt;&lt;p style=&quot;margin: 0px ; margin-left: 8px&quot;&gt;BOProjectID&lt;/p&gt;&lt;p style=&quot;margin: 0px ; margin-left: 8px&quot;&gt;&lt;span&gt;BOID&lt;/span&gt;&lt;/p&gt;&lt;p style=&quot;margin: 0px ; margin-left: 8px&quot;&gt;&lt;span&gt;ProjectName&lt;/span&gt;&lt;/p&gt;&lt;p style=&quot;margin: 0px ; margin-left: 8px&quot;&gt;ProjectCode&lt;/p&gt;&lt;p style=&quot;margin: 0px ; margin-left: 8px&quot;&gt;BOProjectType&lt;/p&gt;&lt;p style=&quot;margin: 0px ; margin-left: 8px&quot;&gt;ProductGroupCode&lt;/p&gt;&lt;p style=&quot;margin: 0px ; margin-left: 8px&quot;&gt;BOProjectStatusID&lt;/p&gt;&lt;p style=&quot;margin: 0px ; margin-left: 8px&quot;&gt;SaleType&lt;/p&gt;&lt;p style=&quot;margin: 0px ; margin-left: 8px&quot;&gt;FunnelID&lt;/p&gt;&lt;p style=&quot;margin: 0px ; margin-left: 8px&quot;&gt;IsBigSingle&lt;/p&gt;" style="verticalAlign=top;align=left;overflow=fill;fontSize=12;fontFamily=Helvetica;html=1;strokeColor=#FF6392;shadow=1;fillColor=#FFE45E;rounded=1;" parent="1" vertex="1">
          <mxGeometry x="938.38" y="1660.49" width="151.08" height="181.96" as="geometry" />
        </mxCell>
        <mxCell id="1fg1kgdo0Z-w_NWFr2Vj-73" value="&lt;p style=&quot;margin: 4px 0px 0px ; text-align: center&quot;&gt;&lt;b&gt;&lt;u&gt;TempClientOrderItems&lt;/u&gt;&lt;/b&gt;&lt;br&gt;&lt;/p&gt;&lt;hr&gt;&lt;p style=&quot;margin: 0px ; margin-left: 8px&quot;&gt;BOProjectID&lt;/p&gt;&lt;p style=&quot;margin: 0px ; margin-left: 8px&quot;&gt;&lt;span&gt;BOID&lt;/span&gt;&lt;/p&gt;&lt;p style=&quot;margin: 0px ; margin-left: 8px&quot;&gt;&lt;span&gt;ProjectName&lt;/span&gt;&lt;/p&gt;&lt;p style=&quot;margin: 0px ; margin-left: 8px&quot;&gt;ProjectCode&lt;/p&gt;&lt;p style=&quot;margin: 0px ; margin-left: 8px&quot;&gt;BOProjectType&lt;/p&gt;&lt;p style=&quot;margin: 0px ; margin-left: 8px&quot;&gt;ProductGroupCode&lt;/p&gt;&lt;p style=&quot;margin: 0px ; margin-left: 8px&quot;&gt;BOProjectStatusID&lt;/p&gt;&lt;p style=&quot;margin: 0px ; margin-left: 8px&quot;&gt;SaleType&lt;/p&gt;&lt;p style=&quot;margin: 0px ; margin-left: 8px&quot;&gt;FunnelID&lt;/p&gt;&lt;p style=&quot;margin: 0px ; margin-left: 8px&quot;&gt;IsBigSingle&lt;/p&gt;" style="verticalAlign=top;align=left;overflow=fill;fontSize=12;fontFamily=Helvetica;html=1;strokeColor=#FF6392;shadow=1;fillColor=#FFE45E;rounded=1;" parent="1" vertex="1">
          <mxGeometry x="1169.46" y="1660.49" width="151.08" height="181.96" as="geometry" />
        </mxCell>
        <mxCell id="1fg1kgdo0Z-w_NWFr2Vj-74" value="&lt;p style=&quot;margin: 4px 0px 0px ; text-align: center&quot;&gt;&lt;b&gt;&lt;u&gt;ClientOrder&lt;/u&gt;&lt;/b&gt;&lt;br&gt;&lt;/p&gt;&lt;hr&gt;&lt;p style=&quot;margin: 0px ; margin-left: 8px&quot;&gt;BOProjectID&lt;/p&gt;&lt;p style=&quot;margin: 0px ; margin-left: 8px&quot;&gt;&lt;span&gt;BOID&lt;/span&gt;&lt;/p&gt;&lt;p style=&quot;margin: 0px ; margin-left: 8px&quot;&gt;&lt;span&gt;ProjectName&lt;/span&gt;&lt;/p&gt;&lt;p style=&quot;margin: 0px ; margin-left: 8px&quot;&gt;ProjectCode&lt;/p&gt;&lt;p style=&quot;margin: 0px ; margin-left: 8px&quot;&gt;BOProjectType&lt;/p&gt;&lt;p style=&quot;margin: 0px ; margin-left: 8px&quot;&gt;ProductGroupCode&lt;/p&gt;&lt;p style=&quot;margin: 0px ; margin-left: 8px&quot;&gt;BOProjectStatusID&lt;/p&gt;&lt;p style=&quot;margin: 0px ; margin-left: 8px&quot;&gt;SaleType&lt;/p&gt;&lt;p style=&quot;margin: 0px ; margin-left: 8px&quot;&gt;FunnelID&lt;/p&gt;&lt;p style=&quot;margin: 0px ; margin-left: 8px&quot;&gt;IsBigSingle&lt;/p&gt;" style="verticalAlign=top;align=left;overflow=fill;fontSize=12;fontFamily=Helvetica;html=1;strokeColor=#FF6392;shadow=1;fillColor=#FFE45E;rounded=1;" parent="1" vertex="1">
          <mxGeometry x="938.38" y="1922.45" width="151.08" height="181.96" as="geometry" />
        </mxCell>
        <mxCell id="1fg1kgdo0Z-w_NWFr2Vj-75" value="&lt;p style=&quot;margin: 4px 0px 0px ; text-align: center&quot;&gt;&lt;b&gt;&lt;u&gt;OrderPackageItems&lt;/u&gt;&lt;/b&gt;&lt;br&gt;&lt;/p&gt;&lt;hr&gt;&lt;p style=&quot;margin: 0px ; margin-left: 8px&quot;&gt;BOProjectID&lt;/p&gt;&lt;p style=&quot;margin: 0px ; margin-left: 8px&quot;&gt;&lt;span&gt;BOID&lt;/span&gt;&lt;/p&gt;&lt;p style=&quot;margin: 0px ; margin-left: 8px&quot;&gt;&lt;span&gt;ProjectName&lt;/span&gt;&lt;/p&gt;&lt;p style=&quot;margin: 0px ; margin-left: 8px&quot;&gt;ProjectCode&lt;/p&gt;&lt;p style=&quot;margin: 0px ; margin-left: 8px&quot;&gt;BOProjectType&lt;/p&gt;&lt;p style=&quot;margin: 0px ; margin-left: 8px&quot;&gt;ProductGroupCode&lt;/p&gt;&lt;p style=&quot;margin: 0px ; margin-left: 8px&quot;&gt;BOProjectStatusID&lt;/p&gt;&lt;p style=&quot;margin: 0px ; margin-left: 8px&quot;&gt;SaleType&lt;/p&gt;&lt;p style=&quot;margin: 0px ; margin-left: 8px&quot;&gt;FunnelID&lt;/p&gt;&lt;p style=&quot;margin: 0px ; margin-left: 8px&quot;&gt;IsBigSingle&lt;/p&gt;" style="verticalAlign=top;align=left;overflow=fill;fontSize=12;fontFamily=Helvetica;html=1;strokeColor=#FF6392;shadow=1;fillColor=#FFE45E;rounded=1;" parent="1" vertex="1">
          <mxGeometry x="1169.46" y="1398.53" width="151.08" height="181.96" as="geometry" />
        </mxCell>
      </root>
    </mxGraphModel>
  </diagram>
  <diagram id="oEj-e48jQIXdYvfERTp6" name="第 2 页">
    <mxGraphModel dx="1422" dy="1875" grid="1" gridSize="10" guides="1" tooltips="1" connect="1" arrows="1" fold="1" page="1" pageScale="1" pageWidth="827" pageHeight="1169" math="0" shadow="0">
      <root>
        <mxCell id="Kl0b1BkYO2HPctB0wkjN-0" />
        <mxCell id="Kl0b1BkYO2HPctB0wkjN-1" parent="Kl0b1BkYO2HPctB0wkjN-0" />
        <mxCell id="nKPvKR1KPThwJmbDqtSB-0" value="&lt;p style=&quot;margin: 4px 0px 0px ; text-align: center&quot;&gt;&lt;b&gt;&lt;u&gt;X86_BOCBOMProductConfig&lt;/u&gt;&lt;/b&gt;&lt;br&gt;&lt;/p&gt;&lt;p style=&quot;margin: 0px ; margin-left: 8px&quot;&gt;SubProductID&lt;/p&gt;&lt;p style=&quot;margin: 0px ; margin-left: 8px&quot;&gt;FeatureCode&lt;/p&gt;&lt;p style=&quot;margin: 0px ; margin-left: 8px&quot;&gt;Quantity&lt;/p&gt;&lt;p style=&quot;margin: 0px ; margin-left: 8px&quot;&gt;FeatureName&lt;/p&gt;&lt;p style=&quot;margin: 0px ; margin-left: 8px&quot;&gt;&lt;br&gt;&lt;/p&gt;&lt;p style=&quot;margin: 0px ; margin-left: 8px&quot;&gt;&lt;br&gt;&lt;/p&gt;" style="verticalAlign=top;align=left;overflow=fill;fontSize=12;fontFamily=Helvetica;html=1;strokeColor=#FF6392;shadow=1;fillColor=#FFE45E;rounded=1;" vertex="1" parent="Kl0b1BkYO2HPctB0wkjN-1">
          <mxGeometry x="220" y="-400" width="210" height="85" as="geometry" />
        </mxCell>
        <mxCell id="nKPvKR1KPThwJmbDqtSB-4" style="edgeStyle=orthogonalEdgeStyle;rounded=0;orthogonalLoop=1;jettySize=auto;html=1;entryX=0.005;entryY=0.382;entryDx=0;entryDy=0;entryPerimeter=0;" edge="1" parent="Kl0b1BkYO2HPctB0wkjN-1" source="nKPvKR1KPThwJmbDqtSB-1" target="nKPvKR1KPThwJmbDqtSB-3">
          <mxGeometry relative="1" as="geometry" />
        </mxCell>
        <mxCell id="nKPvKR1KPThwJmbDqtSB-1" value="&lt;div style=&quot;text-align: center&quot;&gt;&lt;i&gt;&lt;b&gt;&lt;u&gt;&amp;nbsp; &amp;nbsp; &amp;nbsp; &amp;nbsp; &amp;nbsp; 设备类型&lt;/u&gt;&lt;/b&gt;&lt;/i&gt;&lt;/div&gt;&lt;i&gt;&lt;div style=&quot;text-align: center&quot;&gt;&lt;b&gt;&lt;br&gt;&lt;/b&gt;&lt;/div&gt;&lt;b&gt;&lt;div&gt;&lt;div&gt;&lt;i style=&quot;font-weight: normal&quot;&gt;&lt;b&gt;类型ID&lt;/b&gt;&lt;/i&gt;&lt;/div&gt;&lt;i style=&quot;font-weight: normal&quot;&gt;&lt;div&gt;&lt;i&gt;&lt;b&gt;类型名称&lt;/b&gt;&lt;/i&gt;&lt;/div&gt;&lt;/i&gt;&lt;/div&gt;&lt;/b&gt;&lt;/i&gt;" style="rounded=1;html=1;verticalAlign=top;align=left;" vertex="1" parent="Kl0b1BkYO2HPctB0wkjN-1">
          <mxGeometry x="80" y="-200" width="120" height="160" as="geometry" />
        </mxCell>
        <mxCell id="nKPvKR1KPThwJmbDqtSB-3" value="&lt;p style=&quot;margin: 4px 0px 0px ; text-align: center&quot;&gt;&lt;b&gt;&lt;u&gt;设备表（网元）&lt;/u&gt;&lt;/b&gt;&lt;br&gt;&lt;/p&gt;&lt;p style=&quot;margin: 0px ; margin-left: 8px&quot;&gt;SubProductID&lt;/p&gt;&lt;p style=&quot;margin: 0px ; margin-left: 8px&quot;&gt;FeatureCode&lt;/p&gt;&lt;p style=&quot;margin: 0px ; margin-left: 8px&quot;&gt;Quantity&lt;/p&gt;&lt;p style=&quot;margin: 0px ; margin-left: 8px&quot;&gt;FeatureName&lt;/p&gt;&lt;p style=&quot;margin: 0px ; margin-left: 8px&quot;&gt;&lt;br&gt;&lt;/p&gt;&lt;p style=&quot;margin: 0px ; margin-left: 8px&quot;&gt;&lt;br&gt;&lt;/p&gt;" style="verticalAlign=top;align=left;overflow=fill;fontSize=12;fontFamily=Helvetica;html=1;strokeColor=#FF6392;shadow=1;fillColor=#FFE45E;rounded=1;" vertex="1" parent="Kl0b1BkYO2HPctB0wkjN-1">
          <mxGeometry x="309" y="-152.5" width="210" height="85" as="geometry" />
        </mxCell>
        <mxCell id="nKPvKR1KPThwJmbDqtSB-5" value="&lt;p style=&quot;margin: 4px 0px 0px ; text-align: center&quot;&gt;&lt;b&gt;&lt;u&gt;X86_BOCBOMProductConfig&lt;/u&gt;&lt;/b&gt;&lt;br&gt;&lt;/p&gt;&lt;p style=&quot;margin: 0px ; margin-left: 8px&quot;&gt;SubProductID&lt;/p&gt;&lt;p style=&quot;margin: 0px ; margin-left: 8px&quot;&gt;FeatureCode&lt;/p&gt;&lt;p style=&quot;margin: 0px ; margin-left: 8px&quot;&gt;Quantity&lt;/p&gt;&lt;p style=&quot;margin: 0px ; margin-left: 8px&quot;&gt;FeatureName&lt;/p&gt;&lt;p style=&quot;margin: 0px ; margin-left: 8px&quot;&gt;&lt;br&gt;&lt;/p&gt;&lt;p style=&quot;margin: 0px ; margin-left: 8px&quot;&gt;&lt;br&gt;&lt;/p&gt;" style="verticalAlign=top;align=left;overflow=fill;fontSize=12;fontFamily=Helvetica;html=1;strokeColor=#FF6392;shadow=1;fillColor=#FFE45E;rounded=1;" vertex="1" parent="Kl0b1BkYO2HPctB0wkjN-1">
          <mxGeometry x="740" y="-315" width="210" height="85" as="geometry" />
        </mxCell>
        <mxCell id="nKPvKR1KPThwJmbDqtSB-6" value="&lt;p style=&quot;margin: 4px 0px 0px ; text-align: center&quot;&gt;&lt;b&gt;&lt;u&gt;X86_BOCBOMProductConfig&lt;/u&gt;&lt;/b&gt;&lt;br&gt;&lt;/p&gt;&lt;p style=&quot;margin: 0px ; margin-left: 8px&quot;&gt;SubProductID&lt;/p&gt;&lt;p style=&quot;margin: 0px ; margin-left: 8px&quot;&gt;FeatureCode&lt;/p&gt;&lt;p style=&quot;margin: 0px ; margin-left: 8px&quot;&gt;Quantity&lt;/p&gt;&lt;p style=&quot;margin: 0px ; margin-left: 8px&quot;&gt;FeatureName&lt;/p&gt;&lt;p style=&quot;margin: 0px ; margin-left: 8px&quot;&gt;&lt;br&gt;&lt;/p&gt;&lt;p style=&quot;margin: 0px ; margin-left: 8px&quot;&gt;&lt;br&gt;&lt;/p&gt;" style="verticalAlign=top;align=left;overflow=fill;fontSize=12;fontFamily=Helvetica;html=1;strokeColor=#FF6392;shadow=1;fillColor=#FFE45E;rounded=1;" vertex="1" parent="Kl0b1BkYO2HPctB0wkjN-1">
          <mxGeometry x="750" y="60" width="210" height="85" as="geometry" />
        </mxCell>
      </root>
    </mxGraphModel>
  </diagram>
</mxfile>
